<svg width="502" height="512" viewBox="0 0 502 512" fill="none" xmlns="http://www.w3.org/2000/svg">
<rect width="502" height="512" fill="#E5E5E5"/>
<g id="Mascot / Pilot">
<g id="Group">
<path id="Vector" d="M256.46 96.2049C264.619 96.1814 274.883 97.4678 282.965 98.5269C316.887 102.971 350.024 114.618 378.794 133.351C427.749 164.542 462.118 214.097 474.176 270.879C485.198 277.538 493.543 287.838 497.782 300C499.273 304.279 500.219 308.729 500.601 313.243C501.877 327.566 500.326 343.596 500.964 358.107C501.255 364.746 501.415 373.861 500.569 380.281C499.736 386.538 497.882 392.615 495.079 398.269C486.549 415.679 473.841 423.725 456.232 429.727C444.369 454.047 418.968 471.915 395.003 483.231C331.318 513.309 243.856 518.17 175.278 505.115C158.688 501.961 142.377 497.483 126.501 491.729C95.9571 480.931 59.3594 459.892 44.9285 429.731C30.8441 425.209 20.063 419.227 11.2243 406.966C6.32237 400.071 2.96966 392.196 1.39618 383.886C-0.266227 375.333 0.0707128 365.316 0.212669 356.551C0.811996 319.515 -6.07248 294.37 27.253 270.333C27.7674 266.014 30.2815 257.05 31.5687 252.76C40.1758 224.067 55.9692 195.174 76.0848 172.885C109.871 135.146 155.204 109.659 205.004 100.403C220.621 97.5196 230.761 96.9642 246.388 96.1678L256.46 96.2049Z" fill="#E6E3F2"/>
<path id="Vector_2" d="M105.425 260.563C109.252 260.117 118.089 260.324 122.14 260.328L151.543 260.336H251.699L348.102 260.324L377.981 260.32C383.045 260.32 390.505 260.121 395.398 260.591C403.186 261.365 410.634 264.192 416.975 268.778C426.74 275.816 433.228 286.514 434.954 298.425C436.019 305.503 435.888 346.12 434.488 352.731C433.064 359.247 430.293 365.396 426.353 370.775C418.506 381.294 408.035 386.506 395.31 388.412C389.317 388.878 381.143 388.671 374.946 388.683L340.123 388.719L230.786 388.739L147.968 388.727L123.419 388.763C117.344 388.771 111.167 388.958 105.124 388.276C96.9739 387.359 89.7815 384.065 83.1447 379.34C73.9107 372.765 68.0523 362.014 66.2268 350.937C64.8893 342.822 64.9288 302.787 66.6466 295.02C67.9789 288.999 70.5325 283.568 74.1699 278.591C81.812 268.144 92.7965 262.537 105.425 260.563Z" fill="#0B0A12"/>
<path id="Vector_3" d="M344.011 292.005C361.029 289.744 376.649 301.743 378.85 318.769C381.051 335.796 368.997 351.372 351.962 353.513C335.011 355.642 319.531 343.664 317.342 326.721C315.149 309.778 327.076 294.254 344.011 292.005Z" fill="#FF4FD8"/>
<path id="Vector_4" d="M149.191 292.005C166.099 289.84 181.582 301.739 183.834 318.638C186.087 335.533 174.263 351.076 157.377 353.413C140.372 355.766 124.696 343.839 122.428 326.824C120.159 309.805 132.163 294.19 149.191 292.005Z" fill="#FF4FD8"/>
<path id="Vector_5" d="M220.037 30.7168C242.56 25.3129 246.156 22.8219 251.249 0C255.515 20.7787 260.452 26.3481 281.869 30.767L281.53 30.8978C276.833 32.6643 272.299 33.1994 267.53 35.4369C257.972 39.9224 254.634 46.8137 252.293 56.6318C253.561 57.3336 256.121 58.7476 256.229 60.2505C257.054 71.3845 256.285 85.1683 256.46 96.205L246.388 96.1679L246.308 72.7503C246.296 68.8086 246.117 64.7445 246.519 60.8359C246.719 58.8756 248.461 57.6431 249.945 56.5908C245.391 37.1304 237.745 35.7383 220.037 30.7168Z" fill="#9B5CFF"/>
</g>
</g>
</svg>
