<svg width="520" height="120" viewBox="65 73 520 120" fill="none" xmlns="http://www.w3.org/2000/svg">
<g id="FORGE &#226;&#128;&#148; Brand board">
<g id="Logo lockups">
<g id="Lockup / Dark">
<g id="Symbol / F-Spark">
<g id="Group">
<path id="Vector" d="M85.5443 88.3954L113.667 88.4207L94.853 185.614C92.4755 186.179 90.0582 186.821 87.6853 187.422C80.4079 188.923 72.1782 191.591 65 192.94L85.5443 88.3954Z" fill="#9B5CFF"/>
<path id="Vector_2" d="M162.065 88.2357C162.477 88.616 164.763 89.2689 165.433 89.5145C169.399 90.9663 172.293 94.4453 173.09 98.5816C173.464 100.293 173.351 102.584 173.698 103.842C172.8 108.074 171.997 112.049 171.214 116.316L118.424 116.366C118.77 114.085 119.433 111.116 119.882 108.773C121.241 101.98 122.554 95.1777 123.819 88.3665C133.675 88.5455 143.582 88.3177 153.443 88.4221C156.249 88.4519 159.289 88.5331 162.065 88.2357Z" fill="#FF4FD8"/>
<path id="Vector_3" d="M116.93 126.434C126.567 126.608 136.432 126.39 146.124 126.49C145.911 128.419 145.272 131.456 144.907 133.442C143.967 138.481 142.989 143.511 141.973 148.535C139.479 149.09 136.819 149.804 134.326 150.419L110.652 156.201L114.75 135.55C114.99 134.303 116.23 127.108 116.529 126.498L116.93 126.434Z" fill="#FF4FD8"/>
<path id="Vector_4" d="M177.87 73C178.068 73.3732 178.054 73.3875 178.139 73.804C177.994 80.0377 180.803 85.8422 187.053 87.8631C187.673 88.0637 188.956 88.4043 189.585 88.4211C189.792 88.4716 189.988 88.5111 190.196 88.5541L190.018 88.8619C181.583 90.4773 176.326 95.7955 173.698 103.842C173.351 102.584 173.464 100.293 173.09 98.5816C172.293 94.4453 169.399 90.9663 165.433 89.5145C164.763 89.2688 162.477 88.616 162.065 88.2356C170.429 87.0053 175.559 80.7555 177.87 73Z" fill="#F2F0FF"/>
</g>
</g>
<path id="FORGE" d="M232.423 127.788H278.119V142.488H232.423V127.788ZM279.715 102V116.7H233.011L241.327 108.384V165H223.939V102H279.715ZM324.457 166.344C317.009 166.344 310.457 164.972 304.801 162.228C299.201 159.484 294.833 155.648 291.697 150.72C288.617 145.792 287.077 140.052 287.077 133.5C287.077 126.948 288.617 121.208 291.697 116.28C294.833 111.352 299.201 107.516 304.801 104.772C310.457 102.028 317.009 100.656 324.457 100.656C331.961 100.656 338.513 102.028 344.113 104.772C349.713 107.516 354.081 111.352 357.217 116.28C360.353 121.208 361.921 126.948 361.921 133.5C361.921 140.052 360.353 145.792 357.217 150.72C354.081 155.648 349.713 159.484 344.113 162.228C338.513 164.972 331.961 166.344 324.457 166.344ZM324.457 150.804C328.545 150.804 332.073 150.104 335.041 148.704C338.009 147.304 340.277 145.316 341.845 142.74C343.469 140.164 344.281 137.084 344.281 133.5C344.281 129.916 343.469 126.836 341.845 124.26C340.277 121.684 338.009 119.696 335.041 118.296C332.073 116.896 328.545 116.196 324.457 116.196C320.425 116.196 316.925 116.896 313.957 118.296C310.989 119.696 308.693 121.684 307.069 124.26C305.445 126.836 304.633 129.916 304.633 133.5C304.633 137.084 305.445 140.164 307.069 142.74C308.693 145.316 310.989 147.304 313.957 148.704C316.925 150.104 320.425 150.804 324.457 150.804ZM384.588 129.552H407.52C410.32 129.552 412.504 128.908 414.072 127.62C415.64 126.332 416.424 124.54 416.424 122.244C416.424 119.892 415.64 118.1 414.072 116.868C412.504 115.58 410.32 114.936 407.52 114.936H382.152L389.964 106.62V165H372.576V102H409.956C414.772 102 418.972 102.868 422.556 104.604C426.14 106.284 428.94 108.636 430.956 111.66C432.972 114.628 433.98 118.156 433.98 122.244C433.98 126.22 432.972 129.72 430.956 132.744C428.94 135.768 426.14 138.12 422.556 139.8C418.972 141.48 414.772 142.32 409.956 142.32H384.588V129.552ZM393.996 135.516H413.568L436.164 165H416.004L393.996 135.516ZM509.479 137.7C509.311 141.508 508.527 145.148 507.127 148.62C505.783 152.036 503.795 155.088 501.163 157.776C498.587 160.464 495.339 162.564 491.419 164.076C487.555 165.588 483.047 166.344 477.895 166.344C472.967 166.344 468.347 165.644 464.035 164.244C459.723 162.788 455.915 160.66 452.611 157.86C449.363 155.06 446.815 151.616 444.967 147.528C443.175 143.44 442.279 138.764 442.279 133.5C442.279 128.236 443.203 123.56 445.051 119.472C446.899 115.384 449.475 111.94 452.779 109.14C456.139 106.34 460.003 104.24 464.371 102.84C468.795 101.384 473.611 100.656 478.819 100.656C485.763 100.656 491.755 101.72 496.795 103.848C501.835 105.976 505.895 108.888 508.975 112.584C512.055 116.28 514.043 120.564 514.939 125.436H497.383C496.823 123.308 495.675 121.488 493.939 119.976C492.259 118.408 490.131 117.232 487.555 116.448C485.035 115.608 482.151 115.188 478.903 115.188C474.983 115.188 471.595 115.888 468.739 117.288C465.883 118.632 463.671 120.676 462.103 123.42C460.535 126.108 459.751 129.468 459.751 133.5C459.751 137.588 460.591 141.032 462.271 143.832C463.951 146.632 466.331 148.732 469.411 150.132C472.547 151.532 476.215 152.232 480.415 152.232C484.503 152.232 488.115 151.672 491.251 150.552C494.387 149.376 496.879 147.668 498.727 145.428C500.631 143.188 501.723 140.5 502.003 137.364L509.479 137.7ZM482.095 144.672V132.408H515.527V165H503.179L500.743 140.052L504.019 144.672H482.095ZM581.456 127.2V139.8H535.34V127.2H581.456ZM547.184 133.5L543.068 158.784L536.012 150.888H584.228V165H525.68L530.468 133.5L525.68 102H583.808V116.112H536.012L543.068 108.216L547.184 133.5Z" fill="#F2F0FF"/>
</g>
</g>
</g>
</svg>
